<?xml version="1.0" encoding="UTF-8" standalone="no"?>
<svg
   xmlns:dc="http://purl.org/dc/elements/1.1/"
   xmlns:cc="http://creativecommons.org/ns#"
   xmlns:rdf="http://www.w3.org/1999/02/22-rdf-syntax-ns#"
   xmlns:svg="http://www.w3.org/2000/svg"
   xmlns="http://www.w3.org/2000/svg"
   xmlns:sodipodi="http://sodipodi.sourceforge.net/DTD/sodipodi-0.dtd"
   xmlns:inkscape="http://www.inkscape.org/namespaces/inkscape"
   enable-background="new 0 0 32 32"
   height="53.790592"
   id="Слой_1"
   version="1.1"
   viewBox="0 0 64 53.790592"
   width="64"
   xml:space="preserve"
   inkscape:version="0.91 r13725"
   sodipodi:docname="arrow-left.svg"><metadata
     id="metadata20"><rdf:RDF><cc:Work
         rdf:about=""><dc:format>image/svg+xml</dc:format><dc:type
           rdf:resource="http://purl.org/dc/dcmitype/StillImage" /><dc:title></dc:title></cc:Work></rdf:RDF></metadata><defs
     id="defs18" /><sodipodi:namedview
     pagecolor="#ffffff"
     bordercolor="#666666"
     borderopacity="1"
     objecttolerance="10"
     gridtolerance="10"
     guidetolerance="10"
     inkscape:pageopacity="0"
     inkscape:pageshadow="2"
     inkscape:window-width="1054"
     inkscape:window-height="954"
     id="namedview16"
     showgrid="false"
     fit-margin-top="0"
     fit-margin-left="0"
     fit-margin-right="0"
     fit-margin-bottom="0"
     inkscape:zoom="1"
     inkscape:cx="29.22008"
     inkscape:cy="11.794"
     inkscape:window-x="31"
     inkscape:window-y="246"
     inkscape:window-maximized="0"
     inkscape:current-layer="Слой_1" /><path
     d="M 63.730772,52.088679 C 63.830767,51.416713 65.948659,35.269534 56.453142,24.158098 50.619438,17.330445 41.617896,13.592636 29.994487,13.222654 l -0.062,-11.2254291 c 0,-0.771961 -0.445977,-1.473925 -1.141942,-1.805908 -0.697965,-0.325984 -1.523923,-0.231988 -2.121892,0.255987 L 0.7359737,21.730222 C 0.27199729,22.110202 0.00201102,22.678174 1.1114292e-5,23.278143 -0.00198878,23.878113 0.2659976,24.446084 0.72997401,24.826064 L 26.664656,46.310972 c 0.59597,0.493975 1.429927,0.59597 2.121892,0.263987 0.701964,-0.329983 1.145942,-1.035948 1.145942,-1.807908 l 0.062,-11.477417 c 28.016575,-0.02 30.008474,17.931089 30.076471,18.673051 0.08599,1.007949 0.723963,1.793909 1.735912,1.825907 0.024,0.002 0.046,0.002 0.068,0.002 0.98995,0 1.707913,-0.721963 1.855906,-1.701913 z M 26.522663,29.841809 c -0.375981,0.375981 -0.58797,0.883955 -0.58797,1.415928 l 0,9.275529 L 5.157749,23.290142 25.934693,6.2070109 l 0,8.9855431 c 0,1.105944 0.893955,1.999898 1.999898,1.999898 11.379422,0 20.07298,3.295833 25.468706,9.551515 4.057793,4.707761 5.923699,10.469468 6.561666,15.251225 -4.367778,-5.967697 -12.015389,-12.725354 -32.028372,-12.737353 0,0 -0.002,0 -0.004,0 -0.527974,0 -1.035948,0.209989 -1.409929,0.58397 z"
     id="Arrow_Left_1_"
     inkscape:connector-curvature="0"
     style="fill:#000000;fill-opacity:1" /><g
     id="g4"
     transform="translate(0.00100556,23.893592)" /><g
     id="g6"
     transform="translate(0.00100556,23.893592)" /><g
     id="g8"
     transform="translate(0.00100556,23.893592)" /><g
     id="g10"
     transform="translate(0.00100556,23.893592)" /><g
     id="g12"
     transform="translate(0.00100556,23.893592)" /><g
     id="g14"
     transform="translate(0.00100556,23.893592)" /></svg>